 <svg  xmlns="http://www.w3.org/2000/svg" viewBox="0 0 513.83 79.15">
      <g id="Layer_2" data-name="Layer 2">
        <g id="Layer_1-2" data-name="Layer 1">
          <path
            fill="#f3c711"
            d="M332.89,37.29l-19,.08c-1.86,9.2-3.7,18.32-5.53,27.44-.53,2.6-1,5.21-1.51,7.81s-2,4.26-5,4.17c-3.23-.1-6.46,0-9.69,0-3.68,0-4.3-.78-3.58-4.38q3-15.26,6.09-30.51c.27-1.34.47-2.69.8-4.62-2,0-3.83,0-5.62,0-2.61,0-3.55-1.3-3.11-3.73.34-1.93.93-3.81,1.19-5.75.44-3.29,2.37-4.51,5.49-4.39,1.49.06,3,0,4.48,0a4.23,4.23,0,0,0,.56-1C301.73,8.2,311.83,2.25,324.88,1.2,334.4.44,344,.66,353.58.65c4.37,0,4.9.93,4,5.34-1.77,8.68-1.77,8.67-10.71,8.71-6.58,0-13.16,0-19.73.15-5.82.17-9.21,3-10.1,8.51h3.67c9.47,0,18.93-.1,28.39-.11,4,0,4.74.8,4,4.74-2.92,14.81-5.9,29.61-8.83,44.42-.58,2.94-2.15,4.38-5.26,4.25s-6,0-9,0c-4.14,0-4.71-.71-3.9-4.73q3.29-16.44,6.59-32.87c.11-.55.14-1.11.22-1.76"
          ></path>
          <path
            fill="#fff"
            d="M142.81,22.57c4.24,0,8.25-.13,12.24,0a42.33,42.33,0,0,1,7.55.8c9.73,2.1,14.61,9.18,13,19.15-.92,5.8-2.14,11.57-3.57,17.27-2.92,11.62-11.4,16.89-22.48,18.55a66.77,66.77,0,0,1-28.8-1.68c-6.11-1.77-6.5-2.57-5.24-8.84,4.09-20.46,8.22-40.91,12.2-61.39.64-3.31,2.2-4.89,5.5-4.88,3,0,6-.15,9,0,4,.17,4.45.71,3.75,4.62-1,5.56-2.13,11.08-3.17,16.44M134.42,64.2c5.57,1,10.93,1.77,15.84-1.27a9.45,9.45,0,0,0,3.9-5,156.08,156.08,0,0,0,3.05-15.53c.48-3-1-5.24-3.94-5.46a88.43,88.43,0,0,0-12.28.28c-.55,0-1.32,1.2-1.47,1.94-1.73,8.19-3.35,16.39-5.1,25"
          ></path>
          <path
            fill="#f3c711"
            d="M42.43,66.68c-8.56,3.29-17,6.46-25.33,9.78-2.67,1.07-4.54.75-6.19-1.75C9,71.83,6.72,69.2,4.82,66.31a15.71,15.71,0,0,1-2.15-5C1.7,57.21,1,53,.16,48.83c-.47-2.21,0-3.65,2.18-4.78,14.67-7.76,29.2-15.8,44-23.42,15.86-8.2,31.54-3.29,40.84,12.25.49.84,2.17,1.31,3.32,1.35,6.08.21,10.46,3.9,9.73,9.16-.32,2.3-2.2,4.59-3.88,6.43-1,1.11-2,1.63-1.89,3.5.51,7.9-2.86,14.09-9.1,18.73-13.42,10-32.2,8.23-42.88-5.37M9.63,63.89a64.89,64.89,0,0,1,3.92,5.44c1.23,2.15,2.55,2.32,4.79,1.41,7.69-3.13,15.48-6,23.23-9,2.1-.81,3.8-1,5.33,1.33,8.12,12.43,26.85,14,37,3.29a16.68,16.68,0,0,0-1.19-24.58c-7-6.07-18-7.15-27-2.55C51.11,41.58,46.57,44.1,42,46.55L9.63,63.89M55,33.61c-1.4-3.24-2.71-6.27-4.17-9.63L39,30.4c1.47,3.36,2.83,6.44,4.26,9.71,3.2-1.72,5.93-3.18,8.65-4.66.9-.49,1.77-1.05,3.09-1.84"
          ></path>
          <path
            fill="#f3c711"
            d="M446.52,78c-4.16-.33-9.4-.5-14.42-1.92-8.42-2.39-12.61-9.52-11.26-18.15.9-5.69,2-11.36,3.26-17,2.07-9.07,7.53-15.25,16.62-17.65a64.35,64.35,0,0,1,36.15.79c5,1.57,5.27,2.44,4.23,7.65-2.46,12.2-5.05,24.37-7.22,36.62-.79,4.43-2.75,6.59-7.2,7.32-6.48,1-10.12,2.1-20.16,2.31m2.87-14.32c.7,0,1.39,0,2.08,0,3.69.32,5.61-1,6.07-5,.53-4.79,1.86-9.49,2.84-14.23,1.9-9.17,1.13-10-8.4-9.06-.8.08-1.58.31-2.38.45a8.93,8.93,0,0,0-7.72,7.37c-.73,3.14-1.38,6.3-2,9.47-1.84,9.53-.4,11.19,9.5,11"
          ></path>
          <path
            fill="#fff"
            d="M240.18,36.68c-1.5,12-6.68,17.19-19.06,18.76a97.41,97.41,0,0,1-11.71.75c-3.79,0-7.58-.4-11.33-.63-2.55,6.23-.63,9.68,5.89,10.26,5.42.48,10.62-.36,14.81-4.27,2.34-2.18,4.78-2.55,7.55-1,1.1.62,2.25,1.16,3.37,1.75,4.81,2.56,5.23,4.57,1,8.13a31,31,0,0,1-9.38,5.61,51.47,51.47,0,0,1-27.94,1.68c-10.5-2.17-15.94-10.3-14.15-20.95.84-5,1.83-10,3.11-14.87,2.36-9,8.49-14.58,17.16-17.4a50.54,50.54,0,0,1,22.89-1.77c8.69,1.23,15.55,4.78,17.93,14.06ZM200,44.56c5.5,0,10.53,0,15.55-.11a5.58,5.58,0,0,0,3.52-1.16c1.19-1.18,2.58-2.9,2.54-4.35,0-1.2-1.83-2.92-3.19-3.39a16.24,16.24,0,0,0-12.44.61c-3.15,1.48-5.3,3.88-6,8.4"
          ></path>
          <path
            fill="#f3c711"
            d="M363.1,76.52c-9.48,0-9.57,1.37-7.44-9.19,2.39-11.86,4.83-23.71,7.17-35.58.58-3,2-5.09,4.95-6.06,11.11-3.67,22.47-5.31,34.08-3.46,10.86,1.72,15.95,9.07,14,19.85C414,52.17,412,62.22,410,72.29c-.54,2.78-2.09,4.18-5,4.08-3.11-.1-6.23,0-9.35,0-4,0-4.7-.83-3.93-4.76q2.71-13.73,5.49-27.45c1.08-5.43-.62-7.86-6.2-8.26a75.3,75.3,0,0,0-7.93.26c-2.16.08-3.19,1.07-3.61,3.32-1.88,10-4,19.89-5.95,29.83-1.44,7.16-1.44,7.16-8.66,7.19H363.1"
          ></path>
          <path
            fill="#fff"
            d="M241.12,34.12a42.22,42.22,0,0,1,1.53-8c.4-1.29,1.9-2,3.45-2.37,2.19-.49,4.56-.14,7.16-.15.54-2.72,1.09-5.27,1.53-7.85.49-2.93,2-4.52,5.12-4.44s6.46-.06,9.69,0c3.56.06,4.13.86,3.45,4.51-.45,2.38-.85,4.76-1.38,7.71,3.63,0,7-.06,10.42,0,3.74,0,4.27.65,3.86,4.27-1.05,9.33-1.32,9.57-10.82,9.61l-6.44,0c-1.3,6.77-2.69,13.3-3.78,19.88-.63,3.82,1.11,5.85,5,6.38,1.83.25,3.68.29,5.52.42,2,.14,2.86,1.24,2.59,3.23,0,.22-.08.45-.11.68-1.23,10.33-1.77,10.81-12.32,10.29a49,49,0,0,1-6.52-.67c-10.16-1.89-14.3-7.44-12.84-17.65.89-6.15,2.27-12.23,3.42-18.34.23-1.22.4-2.45.6-3.66-3.56-.24-4.25-.06-7.89-.56-1.56-.69-1.23-3.29-1.23-3.29"
          ></path>
          <path
            fill="#f3c711"
            d="M490.09,76c-1.74,0-3.47,0-5.2,0-2.84.07-3.64-1.37-3.12-4q6.83-33.89,13.6-67.77c.52-2.6,1.83-4.13,4.66-4.12,3.22,0,6.45-.26,9.67-.14,4.14.15,4.63,1,3.78,5.24q-3,14.57-5.87,29.15c-2.33,11.63-4.64,23.27-7,34.9C499.23,76,499.18,76,492.51,76h-2.42"
          ></path>
        </g>
      </g>
    </svg>