<svg version="1.1" id="Layer_1" xmlns="http://www.w3.org/2000/svg" xmlns:xlink="http://www.w3.org/1999/xlink" x="0px" y="0px"
	 viewBox="0 0 774.3 169.8" style="enable-background:new 0 0 774.3 169.8;" xml:space="preserve">
<g>
	<path fill="#FFFFFF" d="M78.5,169.8c-6.2-2.5-9.4-7.7-9.6-14.6c-0.4-9.9,2.3-19.1,6.2-28.1c0.8-1.8,1.7-3.6,2.7-5.3
		c0.7-1.2,1.5-1.6,2.7-0.3c2,2.1,2.3,4.7,1.8,7.4c-1,4.8-1.8,9.6-0.5,14.4c1.1,3.8,3.9,5.2,7.8,4.1c5-1.4,9-4.4,13-7.4
		c0.6-0.5,1.2-1,2.1-1.7c-15.2-7.3-24.7-19-27.4-35.6c-1.9-12,0.8-23.1,7.9-33c15.1-21,42-25.4,63.2-11.9c4.1-10,8.2-20,12.3-30
		c-0.1-0.1-0.3-0.1-0.4-0.2c-1.1,0.7-2.2,1.3-3.8,2.3c-0.5-1.5-1-2.8-1.2-4.1c-0.2-1.3-0.1-2.8,0-4.1c0.2-1.8,1.6-2.4,4.1-1.9
		c0.2-2.7,0.3-5.4,0.7-8.1c0.7-4.4,2.4-8.3,6.4-10.8c2.2-1.4,2.5-1.2,4.1,1c2.3,3.1,2,6.5,1.4,9.9s-1.9,6.6-2.9,9.9
		c2,1.5,2.6,3.4,1.3,5.6c-1,1.6-2.3,3.1-3.8,5.1c-0.9-1.9-1.6-3.3-2.1-4.3c-2,7.7-3.9,15.7-6.2,23.6c-3.8,13.7-9,27-15.3,39.7
		c-4.6,9.3-9.5,18.4-14.7,27.4c-4.5,7.7-9.3,15.3-14.5,22.5c-5.3,7.4-11.3,14.3-18.1,20.4c-3.4,3.1-7.1,6-11.6,7.4
		c-0.8,0.2-1.5,0.5-2.3,0.7C80.5,169.8,79.5,169.8,78.5,169.8z"/>
	<path fill="#FFFFFF" d="M552.9,100.8c1.1-3.5,2.2-7,3.2-10.6c3.8-12.4,7.5-24.9,11.4-37.3c0.2-0.5,1.1-1.1,1.6-1.1
		c5.2-0.1,10.4,0,15.7-0.1c1.1,0,1.5,0.3,1.8,1.5c3,11,6.2,21.9,9.3,32.8c1.4,5.1,2.9,10.2,4.3,15.5c3-10.4,6-20.4,9-30.5
		c1.7-5.8,3.4-11.6,5.1-17.5c0.4-1.2,0.9-1.9,2.4-1.9c6.7,0.1,13.3,0.1,20,0c1.8,0,2.1,0.5,1.5,2.1c-3.4,10.8-6.8,21.7-10.2,32.6
		c-4.1,13.1-8.2,26.2-12.3,39.2c-1.3,4.1-2.6,8.2-3.8,12.4c-0.4,1.3-1,2-2.5,1.9c-5.1-0.1-10.1-0.1-15.2,0c-1.4,0-2-0.4-2.4-1.8
		c-4.6-13.8-9.4-27.6-14.1-41.3c-0.4-1.1-0.9-2.2-1.4-3.6c-4.1,11.9-8.1,23.5-12,35c-1.1,3.3-2.4,6.5-3.4,9.8
		c-0.4,1.5-1.2,1.9-2.6,1.9c-4.9,0-9.7-0.1-14.6,0c-1.8,0-2.7-0.3-3.3-2.3c-2.4-8.4-5-16.6-7.4-25c-4.4-14.8-8.7-29.7-13.1-44.5
		c-1.6-5.3-3.2-10.6-4.8-16.2c0.8-0.1,1.3-0.2,1.9-0.2c6.8,0,13.6,0,20.4,0c1.3,0,1.8,0.3,2.1,1.7c4.2,15.8,8.5,31.5,12.7,47.3
		C552.5,100.7,552.6,100.7,552.9,100.8z"/>
	<path fill="#FFFFFF" d="M332.4,52.2c4.2,29.1,8.5,58.1,12.7,87.1c-7.1,0-14.1,0-21.2,0c-2.3-16-4.7-31.9-7-47.8c-0.1,0-0.2,0-0.4,0
		c-1.9,5.7-3.8,11.3-5.7,17c-3.2,9.7-6.5,19.3-9.6,29c-0.5,1.6-1.2,2.1-2.9,2c-2.8-0.2-5.7-0.1-8.5,0c-1.5,0.1-2.1-0.5-2.6-1.9
		c-4.9-14.7-9.8-29.3-14.8-44c-0.2-0.7-0.5-1.3-1.1-1.9c-2.4,15.8-4.8,31.6-7.3,47.6c-7.1,0-14.1,0-21.4,0
		c0.9-5.5,1.7-10.9,2.6-16.3c3-18.6,5.9-37.1,8.9-55.7c0.7-4.6,1.5-9.1,2.2-13.7c0.2-1.2,0.6-1.6,1.8-1.6c6.6,0,13.2,0.1,19.8,0
		c1.6,0,1.7,1,2,2c4.5,14.2,9,28.4,13.5,42.5c0.2,0.6,0.4,1.2,0.8,2.4c0.4-1.1,0.7-1.8,1-2.5c4.8-14.2,9.6-28.3,14.3-42.5
		c0.3-1,0.5-2,2.1-2c6.6,0.1,13.2,0,19.8,0.1C331.6,52,331.9,52.1,332.4,52.2z"/>
	<path fill="#FFFFFF" d="M705,90.3c0,0.8,0,1.5,0,2.3c0,14.8,0,29.7,0,44.5c0,2.1-0.5,2.9-2.7,2.9c-6.5-0.2-13.1-0.1-19.6,0
		c-1.6,0-2.1-0.5-2.1-2.1c0-28,0-56,0-84c0-1.7,0.6-2.1,2.2-2.1c6.2,0.1,12.3,0,18.5,0.1c0.7,0,1.6,0.3,2.1,0.8
		c3.6,3.8,7.2,7.7,10.8,11.5c6.1,6.5,12.2,13,18.3,19.6c3.2,3.5,6.4,7,9.6,10.5c2.6,2.8,5.3,5.7,8.2,8.8c0-1.2,0-2,0-2.7
		c0-15.3,0-30.5,0-45.8c0-2,0.4-2.8,2.6-2.7c6.4,0.1,12.8,0.1,19.1,0c1.7,0,2.3,0.4,2.3,2.2c0,27.9,0,55.9,0,83.8
		c0,1.7-0.6,2.2-2.3,2.2c-6.7-0.1-13.3,0-20-0.1c-0.7,0-1.7-0.2-2.1-0.7c-4.5-4.9-8.9-10-13.3-14.9c-1.7-1.9-3.4-3.7-5.1-5.6
		c-6.2-6.7-12.3-13.5-18.5-20.2c-2.5-2.8-4.9-5.6-7.4-8.4C705.3,90.1,705.1,90.2,705,90.3z"/>
	<path fill="#FFFFFF" d="M395.8,51c25,0.1,45.1,20.3,45,45.1c-0.1,24.9-20.4,45-45.2,44.8c-25.1-0.2-45-20.2-44.9-45.1
		C350.9,70.9,371.1,50.9,395.8,51z M419.6,96c0.1-13.3-10.5-23.9-23.8-23.9s-23.9,10.4-24,23.7c-0.1,13.1,10.6,23.8,23.8,24
		C408.8,119.9,419.6,109.2,419.6,96z"/>
	<path fill="#FFFFFF" d="M67.9,78c-4.8-1.5-9.4-3.3-14.2-4.3c-5.6-1.1-11.3-0.8-16.7,1.1c-9.7,3.4-15.2,12.6-14.2,23.3
		c1,10.2,8.1,18,18.3,19.5c8.9,1.3,17.6,0.6,25.7-3.9c0.2-0.1,0.5-0.2,1.1-0.4c0,3.2,0,6.2,0,9.2c0,3.8-0.1,7.5,0,11.3
		c0.1,1.8-0.5,2.8-2.1,3.3c-3.9,1.2-7.8,2.8-11.8,3.3c-13.1,1.5-25.7-0.4-36.5-8.7C3.8,121.3-1.7,106.9,0.4,90.2
		c3.1-24.7,21.8-39.9,47.2-39.3c6.5,0.2,12.9,0.9,18.6,4.2c0.7,0.4,1.5,1.1,1.6,1.7C67.9,64.1,67.9,71.3,67.9,78z"/>
	<path fill="#FFFFFF" d="M507.3,57.6c-2.5,5.8-5,11.4-7.3,16.9c-3.2-1.3-6.2-2.8-9.3-3.8c-3.4-1.1-7-1.3-10.5-0.2
		c-2.3,0.7-4.1,2.1-4.9,4.5c-1.1,3.2-0.1,6.1,3,7.5c2.6,1.1,5.5,1.7,8.3,2.3c9.6,1.9,17.5,6.2,21.8,15.4c6.7,14.4,0,31.9-15.1,37.3
		c-17.3,6.2-33.3,2.3-48-8.7c3.6-5.3,7.1-10.3,10.7-15.5c1.2,0.8,2.3,1.6,3.4,2.3c6.2,4.1,12.8,6.3,20.3,5.6c4.4-0.4,7.5-3,8.3-6.8
		c0.9-4.2-0.7-8.2-4.6-10.3c-2.2-1.2-4.7-1.7-7.1-2.5c-3.4-1.1-7.1-1.7-10.4-3.1c-13.8-5.7-18.5-20.1-11.1-33.1
		c3.7-6.4,9.3-10.5,16.4-12.4c11.9-3.3,23.5-2.3,34.5,3.5C506.2,56.9,506.7,57.2,507.3,57.6z"/>
	<path fill="#FFFFFF" d="M233.7,57.6c-2.5,5.8-5,11.4-7.2,16.7c-3.9-1.4-7.5-3.1-11.3-4c-2.6-0.6-5.5-0.4-8.1,0.1
		c-3.7,0.7-5.7,3.4-5.8,6.6c-0.1,3,1.7,5.2,5.5,6.4c2.1,0.6,4.2,0.9,6.4,1.4c10.9,2.2,19.3,7.5,22.8,18.6
		c5.1,16.1-4.6,32.5-21.8,35.9c-15.2,3-29.4-0.2-41.7-10c-0.2-0.1-0.3-0.3-0.6-0.7c3.5-5,6.9-10,10.6-15.3c0.9,0.7,1.8,1.3,2.7,1.9
		c6.3,4.3,13.2,6.9,21,6.1c4.5-0.4,7.7-3.1,8.5-7.2c0.8-3.9-1-8.1-4.9-10c-2.8-1.3-5.9-1.9-8.8-2.8c-2.8-0.8-5.6-1.5-8.3-2.6
		c-13.5-5.6-18.4-18.9-11.9-32c3.7-7.4,9.9-11.8,17.8-13.8c11.6-3,22.8-2,33.5,3.6C232.4,56.8,233,57.1,233.7,57.6z"/>
	<path fill="#FFFFFF" d="M644,95.8c0-13.8,0-27.6,0-41.4c0-2,0.4-2.8,2.6-2.7c6.4,0.1,12.8,0.1,19.1,0c1.7,0,2.3,0.4,2.3,2.2
		c-0.1,27.9-0.1,55.8,0,83.7c0,1.9-0.7,2.3-2.4,2.3c-6.4-0.1-12.8-0.1-19.1,0c-1.9,0-2.5-0.5-2.5-2.4
		C644.1,123.6,644,109.7,644,95.8z"/>
	<path fill="#FFFFFF" d="M123.2,141c15.8-22.1,26.3-46.7,35.7-71.7c7.7,9.4,11.4,27.4,5,43C157.1,129.1,140.5,140.9,123.2,141z"/>
</g>
</svg>
